<svg xmlns="http://www.w3.org/2000/svg" width="40" height="22" viewBox="0 0 40 22">
  <defs>
    <linearGradient id="a" x1="50%" x2="50%" y1="0%" y2="97.961%">
      <stop stop-color="#58A8F7" offset="0%"/>
      <stop stop-color="#4D96E0" offset="100%"/>
    </linearGradient>
  </defs>
  <path fill="url(#a)" fill-rule="evenodd" d="M4,9 L15,9 C16.1045695,9 17,9.8954305 17,11 L17,12 C17,13.1045695 16.1045695,14 15,14 L6,14 L6,29 C6,30.1045695 5.1045695,31 4,31 L3,31 C1.8954305,31 1,30.1045695 1,29 L1,11 L1,11 C1,9.8954305 1.8954305,9 3,9 L3,9 L4,9 Z M22,9 L23,9 C24.1045695,9 25,9.8954305 25,11 L25,29 C25,30.1045695 24.1045695,31 23,31 L22,31 C20.8954305,31 20,30.1045695 20,29 L20,11 L20,11 C20,9.8954305 20.8954305,9 22,9 Z M38,9 L39,9 C40.1045695,9 41,9.8954305 41,11 L41,29 C41,30.1045695 40.1045695,31 39,31 L38,31 C36.8954305,31 36,30.1045695 36,29 L36,11 L36,11 C36,9.8954305 36.8954305,9 38,9 Z M30,13 L31,13 L31,13 C32.1045695,13 33,13.8954305 33,15 L33,26 C33,27.1045695 32.1045695,28 31,28 L30,28 C28.8954305,28 28,27.1045695 28,26 L28,15 L28,15 C28,13.8954305 28.8954305,13 30,13 Z M10,19 L12,19 L12,19 C13.1045695,19 14,19.8954305 14,21 L14,22 C14,23.1045695 13.1045695,24 12,24 L10,24 C8.8954305,24 8,23.1045695 8,22 L8,21 L8,21 C8,19.8954305 8.8954305,19 10,19 L10,19 Z" transform="translate(-1 -9)"/>
</svg>